<mxfile host="65bd71144e">
    <diagram id="xXqjhQiOhwLZG3hpxPee" name="ページ1">
        <mxGraphModel dx="1702" dy="547" grid="1" gridSize="10" guides="1" tooltips="1" connect="1" arrows="1" fold="1" page="1" pageScale="1" pageWidth="1169" pageHeight="827" math="0" shadow="0">
            <root>
                <mxCell id="0"/>
                <mxCell id="1" parent="0"/>
                <mxCell id="2" value="ブロック n" style="whiteSpace=wrap;html=1;strokeWidth=3;strokeColor=#3399FF;" vertex="1" parent="1">
                    <mxGeometry x="80" y="250" width="100" height="70" as="geometry"/>
                </mxCell>
                <mxCell id="3" value="ブロック (n+1)'&lt;br&gt;&lt;b&gt;&quot;Uncle&quot;&lt;/b&gt;" style="whiteSpace=wrap;html=1;strokeWidth=3;strokeColor=#3399FF;" vertex="1" parent="1">
                    <mxGeometry x="230" y="295" width="100" height="70" as="geometry"/>
                </mxCell>
                <mxCell id="4" value="ブロック n+1&lt;br&gt;&lt;b&gt;&quot;Parent&quot;&lt;/b&gt;" style="whiteSpace=wrap;html=1;strokeWidth=3;strokeColor=#3399FF;" vertex="1" parent="1">
                    <mxGeometry x="230" y="205" width="100" height="70" as="geometry"/>
                </mxCell>
                <mxCell id="5" value="ブロック n+2&lt;br&gt;&lt;b&gt;&quot;Me&quot;&lt;/b&gt;" style="whiteSpace=wrap;html=1;strokeWidth=3;strokeColor=#3399FF;" vertex="1" parent="1">
                    <mxGeometry x="366" y="205" width="100" height="70" as="geometry"/>
                </mxCell>
                <mxCell id="6" value="" style="endArrow=blockThin;html=1;endFill=1;strokeWidth=4;strokeColor=#3399FF;exitX=1;exitY=0.5;exitDx=0;exitDy=0;entryX=0;entryY=0.5;entryDx=0;entryDy=0;" edge="1" parent="1" source="2" target="4">
                    <mxGeometry width="50" height="50" relative="1" as="geometry">
                        <mxPoint x="250" y="310" as="sourcePoint"/>
                        <mxPoint x="300" y="260" as="targetPoint"/>
                    </mxGeometry>
                </mxCell>
                <mxCell id="7" value="" style="endArrow=blockThin;html=1;endFill=1;strokeWidth=4;strokeColor=#3399FF;exitX=1;exitY=0.5;exitDx=0;exitDy=0;entryX=0;entryY=0.5;entryDx=0;entryDy=0;" edge="1" parent="1" source="2" target="3">
                    <mxGeometry width="50" height="50" relative="1" as="geometry">
                        <mxPoint x="190" y="295" as="sourcePoint"/>
                        <mxPoint x="240" y="250" as="targetPoint"/>
                    </mxGeometry>
                </mxCell>
                <mxCell id="8" value="" style="endArrow=blockThin;html=1;endFill=1;strokeWidth=4;strokeColor=#3399FF;exitX=1;exitY=0.5;exitDx=0;exitDy=0;" edge="1" parent="1" source="4" target="5">
                    <mxGeometry width="50" height="50" relative="1" as="geometry">
                        <mxPoint x="385" y="295" as="sourcePoint"/>
                        <mxPoint x="435" y="340" as="targetPoint"/>
                    </mxGeometry>
                </mxCell>
                <mxCell id="10" value="" style="endArrow=blockThin;html=1;endFill=1;strokeWidth=4;strokeColor=#3399FF;entryX=0;entryY=0.5;entryDx=0;entryDy=0;" edge="1" parent="1" target="2">
                    <mxGeometry width="50" height="50" relative="1" as="geometry">
                        <mxPoint x="40" y="285" as="sourcePoint"/>
                        <mxPoint x="78" y="250" as="targetPoint"/>
                    </mxGeometry>
                </mxCell>
                <mxCell id="13" value="" style="endArrow=none;dashed=1;html=1;strokeColor=#3399FF;strokeWidth=4;" edge="1" parent="1">
                    <mxGeometry width="50" height="50" relative="1" as="geometry">
                        <mxPoint x="-3" y="285" as="sourcePoint"/>
                        <mxPoint x="47" y="285" as="targetPoint"/>
                    </mxGeometry>
                </mxCell>
                <mxCell id="16" value="" style="curved=1;endArrow=blockThin;html=1;strokeColor=#3399FF;strokeWidth=3;endFill=1;dashed=1;dashPattern=1 1;exitX=1;exitY=0.5;exitDx=0;exitDy=0;entryX=0.5;entryY=1;entryDx=0;entryDy=0;" edge="1" parent="1" source="3" target="5">
                    <mxGeometry width="50" height="50" relative="1" as="geometry">
                        <mxPoint x="391" y="380" as="sourcePoint"/>
                        <mxPoint x="441" y="330" as="targetPoint"/>
                        <Array as="points">
                            <mxPoint x="410" y="340"/>
                        </Array>
                    </mxGeometry>
                </mxCell>
            </root>
        </mxGraphModel>
    </diagram>
</mxfile>